<?xml version="1.0" encoding="UTF-8"?>
<svg xmlns="http://www.w3.org/2000/svg" width="1200" height="800" viewBox="0 0 1200 800">
  <defs>
    <style>
      .title { font: bold 20px sans-serif; }
      .label { font: 14px sans-serif; }
      .small { font: 12px sans-serif; }
      .wire { stroke: #333; stroke-width: 2; fill: none; }
      .wire-l1 { stroke: #000; stroke-width: 3; }
      .wire-l2 { stroke: #8B4513; stroke-width: 3; }
      .wire-l3 { stroke: #0066CC; stroke-width: 3; }
      .component { fill: #f0f0f0; stroke: #333; stroke-width: 2; }
      .breaker { fill: #fff; stroke: #333; stroke-width: 1.5; }
    </style>
  </defs>
  
  <text x="600" y="30" class="title" text-anchor="middle">Elektrische Installation - Wohnung Julian</text>
  <text x="600" y="50" class="small" text-anchor="middle">2026-02-16</text>
  
  <!-- Zähler -->
  <rect x="50" y="80" width="100" height="80" class="component"/>
  <text x="100" y="110" class="label" text-anchor="middle">Stromzähler</text>
  <text x="100" y="130" class="small" text-anchor="middle">3-Phasen</text>
  
  <!-- Hauptsicherung -->
  <rect x="200" y="80" width="100" height="80" class="component"/>
  <text x="250" y="110" class="label" text-anchor="middle">Haupt-Sicherung</text>
  <text x="250" y="130" class="small" text-anchor="middle">Diazed 63A</text>
  
  <!-- FI -->
  <rect x="350" y="80" width="100" height="80" class="component"/>
  <text x="400" y="110" class="label" text-anchor="middle">FI-Schalter</text>
  <text x="400" y="130" class="small" text-anchor="middle">30mA</text>
  
  <!-- Shelly -->
  <rect x="500" y="80" width="120" height="80" class="component"/>
  <text x="560" y="110" class="label" text-anchor="middle">Shelly Pro3EM</text>
  <text x="560" y="130" class="small" text-anchor="middle">Energiemonitor</text>
  
  <!-- Verbindungen -->
  <line x1="150" y1="120" x2="200" y2="120" class="wire"/>
  <line x1="300" y1="120" x2="350" y2="120" class="wire"/>
  <line x1="450" y1="120" x2="500" y2="120" class="wire"/>
  
  <!-- Phasen-Verteilung -->
  <line x1="620" y1="120" x2="700" y2="200" class="wire-l1"/>
  <circle cx="700" cy="200" r="5" fill="Schwarz"/>
  <text x="720" y="205" class="label">L1 (Schwarz) - 36W</text>
  <line x1="620" y1="120" x2="700" y2="280" class="wire-l2"/>
  <circle cx="700" cy="280" r="5" fill="Braun"/>
  <text x="720" y="285" class="label">L2 (Braun) - 438W</text>
  <rect x="850" y="260" width="80" height="40" class="breaker"/>
  <text x="890" y="280" class="small" text-anchor="middle">F7</text>
  <text x="890" y="295" class="small" text-anchor="middle" font-size="10">Julians Zimmer, Balkon groß</text>
  <line x1="700" y1="280" x2="850" y2="280" class="wire-l2"/>
  <line x1="620" y1="120" x2="700" y2="360" class="wire-l3"/>
  <circle cx="700" cy="360" r="5" fill="Blau"/>
  <text x="720" y="365" class="label">L3 (Blau) - 0W</text>
</svg>